<svg width="444" height="370" viewBox="0 0 444 370" fill="none" xmlns="http://www.w3.org/2000/svg">
<g clip-path="url(#clip0)">
<g opacity="0.7">
<path opacity="0.7" d="M375.877 317.416C373.891 305.442 367.466 294.657 357.883 287.21C348.3 279.762 336.263 276.199 324.17 277.231C312.077 278.263 300.817 283.814 292.634 292.778C284.452 301.741 279.947 313.459 280.019 325.596C280.019 325.834 280.019 326.066 280.019 326.305C278.234 326.575 276.467 326.954 274.728 327.439C272.501 318.569 267.572 310.612 260.622 304.668C253.672 298.725 245.047 295.089 235.939 294.264C226.832 293.44 217.694 295.467 209.79 300.066C201.886 304.665 195.607 311.608 191.823 319.933C187.923 318.428 183.827 317.492 179.661 317.154C178.996 313.381 177.882 309.702 176.341 306.195C175.618 295.129 170.749 284.742 162.706 277.107C154.664 269.473 144.038 265.151 132.949 265.004C121.861 264.857 111.124 268.896 102.882 276.316C94.6404 283.735 89.4986 293.989 88.4828 305.032C86.2 309.866 84.7419 315.048 84.1689 320.363C74.077 324.562 65.9032 332.358 61.2317 342.24C56.5603 352.122 55.7239 363.387 58.8847 373.85H412.12C413.962 367.747 414.458 361.317 413.575 355.004C412.692 348.69 410.451 342.643 407.006 337.279C403.561 331.915 398.995 327.362 393.621 323.933C388.247 320.503 382.193 318.28 375.877 317.416Z" fill="url(#paint0_linear)"/>
</g>
<path d="M132.359 353.147C156.7 353.147 176.433 333.415 176.433 309.074C176.433 284.732 156.7 265 132.359 265C108.018 265 88.2855 284.732 88.2855 309.074C88.2855 333.415 108.018 353.147 132.359 353.147Z" fill="url(#paint1_linear)"/>
<path d="M132.141 373.862C158.795 373.862 180.403 352.254 180.403 325.6C180.403 298.946 158.795 277.339 132.141 277.339C105.487 277.339 83.8799 298.946 83.8799 325.6C83.8799 352.254 105.487 373.862 132.141 373.862Z" fill="url(#paint2_linear)"/>
<path d="M328.273 373.862C354.927 373.862 376.535 352.254 376.535 325.6C376.535 298.946 354.927 277.339 328.273 277.339C301.619 277.339 280.012 298.946 280.012 325.6C280.012 352.254 301.619 373.862 328.273 373.862Z" fill="url(#paint3_linear)"/>
<path d="M325.846 373.862C350.188 373.862 369.92 354.129 369.92 329.788C369.92 305.447 350.188 285.714 325.846 285.714C301.505 285.714 281.773 305.447 281.773 329.788C281.773 354.129 301.505 373.862 325.846 373.862Z" fill="url(#paint4_linear)"/>
<path d="M276.042 338.164C276.049 345.133 274.4 352.005 271.231 358.212C268.062 364.42 263.464 369.786 257.815 373.868H206.116C199.997 369.445 195.116 363.525 191.941 356.675C188.766 349.826 187.403 342.275 187.982 334.747C188.562 327.22 191.065 319.967 195.252 313.684C199.438 307.401 205.168 302.298 211.892 298.865C218.616 295.431 226.109 293.781 233.653 294.074C241.198 294.367 248.541 296.592 254.978 300.536C261.416 304.48 266.733 310.012 270.421 316.6C274.108 323.189 276.041 330.614 276.036 338.164H276.042Z" fill="url(#paint5_linear)"/>
<path d="M330.7 369.898C330.7 371.217 330.641 372.523 330.524 373.814C330.529 373.831 330.529 373.85 330.524 373.868H242.728C242.607 372.561 242.546 371.236 242.546 369.904C242.539 359.358 246.317 349.159 253.194 341.163C260.071 333.166 269.589 327.904 280.018 326.333C282.197 326.005 284.398 325.839 286.602 325.837C287.728 325.837 288.847 325.879 289.954 325.958C297.854 326.562 305.445 329.282 311.93 333.834C318.415 338.385 323.555 344.598 326.809 351.822C326.99 352.221 327.166 352.627 327.329 353.032C329.555 358.377 330.7 364.109 330.7 369.898Z" fill="url(#paint6_linear)"/>
<path d="M414 361.081C414.005 365.411 413.369 369.718 412.112 373.862H327.753C325.713 367.085 325.325 359.918 326.621 352.96C326.694 352.578 326.766 352.191 326.851 351.816C328.975 341.962 334.411 333.134 342.253 326.801C350.095 320.468 359.871 317.014 369.951 317.013C371.336 317.013 372.698 317.074 374.047 317.207C374.653 317.255 375.258 317.328 375.863 317.407C386.426 318.844 396.111 324.061 403.123 332.091C410.135 340.121 413.999 350.42 414 361.081Z" fill="url(#paint7_linear)"/>
<path d="M143.258 373.868C143.403 373.408 143.53 372.948 143.658 372.482C145.664 364.978 145.653 357.077 143.626 349.579C141.598 342.081 137.627 335.251 132.112 329.78C126.598 324.31 119.737 320.392 112.223 318.425C104.709 316.457 96.8081 316.509 89.3204 318.575C87.5671 319.056 85.8468 319.65 84.1705 320.354C74.0768 324.553 65.9018 332.35 61.2304 342.234C56.559 352.118 55.7239 363.385 58.887 373.85H143.258V373.868Z" fill="url(#paint8_linear)"/>
<path d="M240.292 373.614C240.474 373.031 240.634 372.449 240.793 371.859C243.314 362.359 243.3 352.357 240.753 342.863C238.206 333.37 233.217 324.724 226.29 317.798C219.362 310.872 210.743 305.912 201.303 303.421C191.864 300.93 181.939 300.995 172.532 303.611C170.33 304.22 168.168 304.972 166.063 305.863C153.382 311.18 143.113 321.052 137.244 333.565C131.376 346.078 130.326 360.342 134.3 373.591H240.292V373.614Z" fill="url(#paint9_linear)"/>
<g opacity="0.7">
<path opacity="0.7" d="M340.94 295.925C344.481 295.925 347.352 293.054 347.352 289.513C347.352 285.972 344.481 283.102 340.94 283.102C337.399 283.102 334.529 285.972 334.529 289.513C334.529 293.054 337.399 295.925 340.94 295.925Z" fill="url(#paint10_linear)"/>
</g>
<path d="M395.941 285.882C399.223 285.882 401.882 283.223 401.882 279.941C401.882 276.66 399.223 274 395.941 274C392.66 274 390 276.66 390 279.941C390 283.223 392.66 285.882 395.941 285.882Z" fill="url(#paint11_linear)"/>
<g opacity="0.7">
<path opacity="0.7" d="M394.992 285.984C398.854 285.984 401.984 282.854 401.984 278.992C401.984 275.131 398.854 272 394.992 272C391.131 272 388 275.131 388 278.992C388 282.854 391.131 285.984 394.992 285.984Z" fill="url(#paint12_linear)"/>
</g>
<path d="M370.301 358.02C373.969 358.02 376.943 355.046 376.943 351.378C376.943 347.71 373.969 344.736 370.301 344.736C366.632 344.736 363.659 347.71 363.659 351.378C363.659 355.046 366.632 358.02 370.301 358.02Z" fill="url(#paint13_linear)"/>
<g opacity="0.7">
<path opacity="0.7" d="M48.6833 303.367C52.9267 303.367 56.3666 299.927 56.3666 295.683C56.3666 291.44 52.9267 288 48.6833 288C44.4399 288 41 291.44 41 295.683C41 299.927 44.4399 303.367 48.6833 303.367Z" fill="url(#paint14_linear)"/>
</g>
<path d="M49.3378 304.676C53.3903 304.676 56.6755 301.39 56.6755 297.338C56.6755 293.285 53.3903 290 49.3378 290C45.2852 290 42 293.285 42 297.338C42 301.39 45.2852 304.676 49.3378 304.676Z" fill="url(#paint15_linear)"/>
<path opacity="0.25" d="M346.881 167.881C348.233 167.881 349.329 166.785 349.329 165.433C349.329 164.082 348.233 162.986 346.881 162.986C345.529 162.986 344.434 164.082 344.434 165.433C344.434 166.785 345.529 167.881 346.881 167.881Z" fill="#535461"/>
<path opacity="0.25" d="M20.5448 232.188C21.8965 232.188 22.9923 231.093 22.9923 229.741C22.9923 228.389 21.8965 227.293 20.5448 227.293C19.1931 227.293 18.0973 228.389 18.0973 229.741C18.0973 231.093 19.1931 232.188 20.5448 232.188Z" fill="#535461"/>
<path opacity="0.25" d="M441.423 246.106C442.775 246.106 443.87 245.01 443.87 243.658C443.87 242.306 442.775 241.211 441.423 241.211C440.071 241.211 438.975 242.306 438.975 243.658C438.975 245.01 440.071 246.106 441.423 246.106Z" fill="#535461"/>
<path opacity="0.25" d="M138.563 130.131C139.915 130.131 141.011 129.036 141.011 127.684C141.011 126.332 139.915 125.236 138.563 125.236C137.212 125.236 136.116 126.332 136.116 127.684C136.116 129.036 137.212 130.131 138.563 130.131Z" fill="#535461"/>
<path opacity="0.25" d="M130.525 73.8576C131.877 73.8576 132.973 72.7618 132.973 71.4101C132.973 70.0583 131.877 68.9625 130.525 68.9625C129.173 68.9625 128.078 70.0583 128.078 71.4101C128.078 72.7618 129.173 73.8576 130.525 73.8576Z" fill="#535461"/>
<path opacity="0.25" d="M60.9961 185.34C62.3478 185.34 63.4436 184.244 63.4436 182.892C63.4436 181.541 62.3478 180.445 60.9961 180.445C59.6444 180.445 58.5486 181.541 58.5486 182.892C58.5486 184.244 59.6444 185.34 60.9961 185.34Z" fill="#535461"/>
<path opacity="0.25" d="M407.527 185.781H405.348V183.607H404.461V185.781H402.282V186.674H404.461V188.848H405.348V186.674H407.527V185.781Z" fill="#535461"/>
<path opacity="0.25" d="M444 110.436H441.821V108.262H440.933V110.436H438.755V111.329H440.933V113.503H441.821V111.329H444V110.436Z" fill="#535461"/>
<path opacity="0.25" d="M288.688 68.3435H286.509V66.1647H285.621V68.3435H283.442V69.2313H285.621V71.4101H286.509V69.2313H288.688V68.3435Z" fill="#535461"/>
<path opacity="0.25" d="M383.757 173.549H381.579V171.375H380.691V173.549H378.517V174.441H380.691V176.615H381.579V174.441H383.757V173.549Z" fill="#535461"/>
<path opacity="0.25" d="M304.064 245.899H301.89V243.725H301.002V245.899H298.823V246.792H301.002V248.966H301.89V246.792H304.064V245.899Z" fill="#535461"/>
<path opacity="0.25" d="M81.0706 96.6531H78.8919V94.4791H78.004V96.6531H75.8253V97.5409H78.004V99.7197H78.8919V97.5409H81.0706V96.6531Z" fill="#535461"/>
<path opacity="0.25" d="M5.24538 124.968H3.0666V122.794H2.17878V124.968H0V125.856H2.17878V128.034H3.0666V125.856H5.24538V124.968Z" fill="#535461"/>
<path opacity="0.25" d="M111.127 214.096H108.948V211.917H108.061V214.096H105.887V214.984H108.061V217.163H108.948V214.984H111.127V214.096Z" fill="#535461"/>
<path d="M370.301 358.02C373.969 358.02 376.943 355.046 376.943 351.378C376.943 347.71 373.969 344.736 370.301 344.736C366.632 344.736 363.659 347.71 363.659 351.378C363.659 355.046 366.632 358.02 370.301 358.02Z" fill="url(#paint16_linear)"/>
<g opacity="0.1">
<path opacity="0.1" d="M236.877 96.9651H187.447V98.8847H236.877V96.9651Z" fill="black"/>
</g>
</g>
<defs>
<linearGradient id="paint0_linear" x1="207313" y1="91160.4" x2="207313" y2="70777.1" gradientUnits="userSpaceOnUse">
<stop stop-color="#808080" stop-opacity="0.25"/>
<stop offset="0.54" stop-color="#808080" stop-opacity="0.12"/>
<stop offset="1" stop-color="#808080" stop-opacity="0.1"/>
</linearGradient>
<linearGradient id="paint1_linear" x1="132.359" y1="265" x2="132.359" y2="353.147" gradientUnits="userSpaceOnUse">
<stop stop-color="#F2F2F2"/>
<stop offset="0.31" stop-color="#E6E6E6"/>
<stop offset="0.77" stop-color="#CCCCCC"/>
</linearGradient>
<linearGradient id="paint2_linear" x1="26371.9" y1="58858" x2="26371.9" y2="74253.3" gradientUnits="userSpaceOnUse">
<stop stop-color="#F2F2F2"/>
<stop offset="0.31" stop-color="#E6E6E6"/>
<stop offset="0.77" stop-color="#CCCCCC"/>
</linearGradient>
<linearGradient id="paint3_linear" x1="57851" y1="58858" x2="57851" y2="74253.3" gradientUnits="userSpaceOnUse">
<stop stop-color="#F2F2F2"/>
<stop offset="0.31" stop-color="#E6E6E6"/>
<stop offset="0.77" stop-color="#CCCCCC"/>
</linearGradient>
<linearGradient id="paint4_linear" x1="52503.8" y1="55003.2" x2="52503.8" y2="67842.7" gradientUnits="userSpaceOnUse">
<stop stop-color="#F2F2F2"/>
<stop offset="0.31" stop-color="#E6E6E6"/>
<stop offset="0.77" stop-color="#CCCCCC"/>
</linearGradient>
<linearGradient id="paint5_linear" x1="50872.3" y1="56136.2" x2="50872.3" y2="66659.7" gradientUnits="userSpaceOnUse">
<stop stop-color="#F2F2F2"/>
<stop offset="0.31" stop-color="#E6E6E6"/>
<stop offset="0.77" stop-color="#CCCCCC"/>
</linearGradient>
<linearGradient id="paint6_linear" x1="58867.2" y1="36444.5" x2="58867.2" y2="40257.7" gradientUnits="userSpaceOnUse">
<stop stop-color="#F2F2F2"/>
<stop offset="0.31" stop-color="#E6E6E6"/>
<stop offset="0.77" stop-color="#CCCCCC"/>
</linearGradient>
<linearGradient id="paint7_linear" x1="71065.9" y1="42237.7" x2="71065.9" y2="47579.2" gradientUnits="userSpaceOnUse">
<stop stop-color="#F2F2F2"/>
<stop offset="0.31" stop-color="#E6E6E6"/>
<stop offset="0.77" stop-color="#CCCCCC"/>
</linearGradient>
<linearGradient id="paint8_linear" x1="31652.3" y1="42262.2" x2="31652.3" y2="47606.8" gradientUnits="userSpaceOnUse">
<stop stop-color="#F2F2F2"/>
<stop offset="0.31" stop-color="#E6E6E6"/>
<stop offset="0.77" stop-color="#CCCCCC"/>
</linearGradient>
<linearGradient id="paint9_linear" x1="39823.7" y1="53405.3" x2="39823.7" y2="60171.7" gradientUnits="userSpaceOnUse">
<stop stop-color="#F2F2F2"/>
<stop offset="0.31" stop-color="#E6E6E6"/>
<stop offset="0.77" stop-color="#CCCCCC"/>
</linearGradient>
<linearGradient id="paint10_linear" x1="9444.44" y1="8190.22" x2="9444.44" y2="7847.59" gradientUnits="userSpaceOnUse">
<stop stop-color="#808080" stop-opacity="0.25"/>
<stop offset="0.54" stop-color="#808080" stop-opacity="0.12"/>
<stop offset="1" stop-color="#808080" stop-opacity="0.1"/>
</linearGradient>
<linearGradient id="paint11_linear" x1="8831.68" y1="7295.25" x2="8831.68" y2="7589.46" gradientUnits="userSpaceOnUse">
<stop stop-color="#F2F2F2"/>
<stop offset="0.31" stop-color="#E6E6E6"/>
<stop offset="0.77" stop-color="#CCCCCC"/>
</linearGradient>
<linearGradient id="paint12_linear" x1="11178.6" y1="10714.9" x2="11178.6" y2="10307.5" gradientUnits="userSpaceOnUse">
<stop stop-color="#808080" stop-opacity="0.25"/>
<stop offset="0.54" stop-color="#808080" stop-opacity="0.12"/>
<stop offset="1" stop-color="#808080" stop-opacity="0.1"/>
</linearGradient>
<linearGradient id="paint13_linear" x1="370.301" y1="344.736" x2="370.301" y2="358.02" gradientUnits="userSpaceOnUse">
<stop stop-color="#F2F2F2"/>
<stop offset="0.31" stop-color="#E0E0E0"/>
<stop offset="0.77" stop-color="#B3B3B3"/>
</linearGradient>
<linearGradient id="paint14_linear" x1="2317.87" y1="10509.2" x2="2317.87" y2="10017.2" gradientUnits="userSpaceOnUse">
<stop stop-color="#808080" stop-opacity="0.25"/>
<stop offset="0.54" stop-color="#808080" stop-opacity="0.12"/>
<stop offset="1" stop-color="#808080" stop-opacity="0.1"/>
</linearGradient>
<linearGradient id="paint15_linear" x1="2216.48" y1="9592.25" x2="2216.48" y2="10041.2" gradientUnits="userSpaceOnUse">
<stop stop-color="#F2F2F2"/>
<stop offset="0.31" stop-color="#E6E6E6"/>
<stop offset="0.77" stop-color="#CCCCCC"/>
</linearGradient>
<linearGradient id="paint16_linear" x1="10613.6" y1="9887.03" x2="10613.6" y2="10254.7" gradientUnits="userSpaceOnUse">
<stop stop-color="#F2F2F2"/>
<stop offset="0.31" stop-color="#E6E6E6"/>
<stop offset="0.77" stop-color="#CCCCCC"/>
</linearGradient>
<clipPath id="clip0">
<rect width="444" height="369.571" fill="white"/>
</clipPath>
</defs>
</svg>
