<svg width="136" height="364" viewBox="0 0 136 364" fill="none" xmlns="http://www.w3.org/2000/svg">
<path d="M26.7599 273H15.6885V363.05H26.7599V273Z" fill="url(#paint0_linear)"/>
<path d="M62.7433 273H51.6719V363.05H62.7433V273Z" fill="url(#paint1_linear)"/>
<path d="M85.2845 273H74.2131V363.05H85.2845V273Z" fill="url(#paint2_linear)"/>
<path d="M121.666 273H110.595V363.05H121.666V273Z" fill="url(#paint3_linear)"/>
<g opacity="0.7">
<path opacity="0.7" d="M135.771 143.305C135.809 131.612 133.01 120.085 127.612 109.712C125.05 104.841 122.713 101.813 120.894 99.9555C120.208 99.2281 119.312 98.733 118.331 98.5394C117.35 98.3458 116.334 98.4634 115.423 98.8757C114.695 99.1326 114.037 99.5566 113.503 100.114C111.07 102.633 108.872 105.964 106.952 109.51C101.274 120.126 98.3268 131.987 98.3765 144.025V151.253H93.7406V67.269C93.7406 49.6661 89.8005 32.2983 82.0836 16.8789C78.4267 9.57947 75.0914 5.04436 72.5239 2.2561C71.9019 1.54728 71.1357 0.979377 70.2767 0.590316C69.4177 0.201255 68.4855 0 67.5425 0C66.5994 0 65.6672 0.201255 64.8082 0.590316C63.9492 0.979377 63.183 1.54728 62.561 2.2561C59.0865 6.03296 55.9527 11.024 53.2124 16.3318C45.0972 32.0679 40.9748 49.9252 40.9748 68.0513V151.253H36.9676V143.68C37.0173 131.641 34.0701 119.78 28.3917 109.165C26.472 105.623 24.2741 102.293 21.841 99.7683C21.1406 99.0307 20.224 98.5346 19.2234 98.3518C18.2228 98.1689 17.19 98.3087 16.274 98.7509L16.442 98.8421C15.8544 99.1018 15.323 99.4735 14.8775 99.9363C13.0779 101.794 10.7407 104.822 8.15881 109.693C2.76134 120.066 -0.0382395 131.593 0.000394492 143.286V268.849H14.3016L12.7419 279.172V310.035H24.4324V279.172L22.8727 268.849H36.9676V154.502H40.9748V268.336H52.3966L50.7553 279.167V310.035H62.4506V279.172L60.8094 268.34H76.2L74.5587 279.172V310.035H86.254V279.172L84.6127 268.34H93.731V154.502H98.3669V269.022H102.125V268.849H114.549L112.99 279.172V310.035H124.685V279.172L123.125 268.849H135.771V143.305Z" fill="url(#paint4_linear)"/>
</g>
<path d="M26.7599 273.154H15.6885L17.6657 259.712H24.7827L26.7599 273.154Z" fill="#535461"/>
<g opacity="0.1">
<path opacity="0.1" d="M17.1138 265.048H25.3346L24.7827 261.291H17.6657L17.1138 265.048Z" fill="black"/>
</g>
<path d="M121.666 273.154H110.595L112.572 259.712H119.689L121.666 273.154Z" fill="#535461"/>
<g opacity="0.1">
<path opacity="0.1" d="M112.02 265.048H120.241L119.689 261.291H112.572L112.02 265.048Z" fill="black"/>
</g>
<path d="M62.7481 273.154H51.6719L53.6491 259.712H60.7709L62.7481 273.154Z" fill="#535461"/>
<g opacity="0.1">
<path opacity="0.1" d="M53.0973 265.048H61.3229L60.771 261.291H53.6492L53.0973 265.048Z" fill="black"/>
</g>
<path d="M85.2846 273.154H74.2131L76.1903 259.712H83.3074L85.2846 273.154Z" fill="#535461"/>
<g opacity="0.1">
<path opacity="0.1" d="M75.6384 265.048H83.864L83.3073 261.291H76.1903L75.6384 265.048Z" fill="black"/>
</g>
<path d="M105.849 148.589H26.76V151.752H105.849V148.589Z" fill="#535461"/>
<path d="M118.077 98.6166C117.659 98.1553 117.149 97.7865 116.58 97.5342C116.011 97.2819 115.395 97.1515 114.772 97.1515C114.15 97.1515 113.534 97.2819 112.965 97.5342C112.396 97.7865 111.886 98.1553 111.468 98.6166C109.165 101.069 107.087 104.313 105.268 107.764C99.8856 118.14 97.1009 129.668 97.1527 141.357V263.105H132.152V140.853C132.196 129.484 129.547 118.267 124.421 108.119C121.993 103.377 119.78 100.426 118.077 98.6166Z" fill="#E0E0E0"/>
<path d="M17.7137 98.6166C18.1317 98.1553 18.6416 97.7865 19.2107 97.5342C19.7797 97.2819 20.3954 97.1515 21.0179 97.1515C21.6404 97.1515 22.256 97.2819 22.8251 97.5342C23.3942 97.7865 23.9041 98.1553 24.322 98.6166C26.6256 101.069 28.7036 104.313 30.5224 107.764C35.9047 118.14 38.6894 129.668 38.6376 141.357V263.105H3.62847V140.853C3.58448 129.484 6.2339 118.267 11.3598 108.119C13.7833 103.377 15.9957 100.426 17.7137 98.6166Z" fill="#E0E0E0"/>
<path d="M3.8252 143.449L12.1276 143.488V153.729H3.8252V143.449Z" fill="#535461"/>
<path d="M30.3209 143.449L38.6233 143.488V153.729H30.3209V143.449Z" fill="#535461"/>
<path d="M97.1478 143.449L105.455 143.488V153.729H97.1478V143.449Z" fill="#535461"/>
<path d="M123.644 143.449L131.951 143.488V153.729H123.644V143.449Z" fill="#535461"/>
<g opacity="0.1">
<path opacity="0.1" d="M30.5081 107.605C28.694 104.155 26.6112 100.911 24.3077 98.4582C23.6567 97.7392 22.7884 97.253 21.8353 97.0736C20.8821 96.8942 19.8965 97.0316 19.0287 97.4648C19.5287 97.7143 19.9805 98.0506 20.3628 98.4582C22.6664 100.911 24.7444 104.155 26.5632 107.605C31.9455 117.982 34.7302 129.509 34.6784 141.199V262.937H38.6329V141.213C38.684 129.518 35.896 117.985 30.5081 107.605Z" fill="black"/>
</g>
<g opacity="0.1">
<path opacity="0.1" d="M108.416 107.941C110.23 104.491 112.313 101.246 114.617 98.7941C115.048 98.33 115.569 97.9578 116.147 97.7C115.292 97.3253 114.34 97.2294 113.427 97.4258C112.514 97.6222 111.686 98.1009 111.06 98.7941C108.757 101.246 106.679 104.491 104.86 107.941C99.4778 118.318 96.6931 129.845 96.7448 141.535V263.273H100.306V141.554C100.249 129.858 103.033 118.324 108.416 107.941Z" fill="black"/>
</g>
<path d="M72.2792 3.16312C71.7008 2.47566 70.979 1.923 70.1645 1.54386C69.35 1.16472 68.4625 0.968262 67.5641 0.968262C66.6657 0.968262 65.7781 1.16472 64.9636 1.54386C64.1491 1.923 63.4274 2.47566 62.849 3.16312C59.5616 6.8392 56.6102 11.7007 53.9995 16.8741C46.321 32.2023 42.4146 49.5989 42.4146 67.2402V262.605H92.368V66.4532C92.368 49.3109 88.6392 32.3798 81.3302 17.4019C77.8701 10.2945 74.7123 5.87939 72.2792 3.16312Z" fill="#EEEEEE"/>
<path d="M74.7987 24.8645H59.2929C56.3774 24.8645 54.0139 27.228 54.0139 30.1435V31.5304C54.0139 34.4459 56.3774 36.8094 59.2929 36.8094H74.7987C77.7142 36.8094 80.0776 34.4459 80.0776 31.5304V30.1435C80.0776 27.228 77.7142 24.8645 74.7987 24.8645Z" fill="#F9A826"/>
<defs>
<linearGradient id="paint0_linear" x1="21.2218" y1="273" x2="21.2218" y2="363.064" gradientUnits="userSpaceOnUse">
<stop stop-color="#E0E0E0"/>
<stop offset="0.31" stop-color="#FCCC63"/>
<stop offset="0.77" stop-color="#F55F44"/>
</linearGradient>
<linearGradient id="paint1_linear" x1="4711.53" y1="55851.9" x2="4711.53" y2="61491.7" gradientUnits="userSpaceOnUse">
<stop stop-color="#E0E0E0"/>
<stop offset="0.31" stop-color="#FCCC63"/>
<stop offset="0.77" stop-color="#F55F44"/>
</linearGradient>
<linearGradient id="paint2_linear" x1="5254.1" y1="55851.9" x2="5254.1" y2="61491.7" gradientUnits="userSpaceOnUse">
<stop stop-color="#E0E0E0"/>
<stop offset="0.31" stop-color="#FCCC63"/>
<stop offset="0.77" stop-color="#F55F44"/>
</linearGradient>
<linearGradient id="paint3_linear" x1="6129.81" y1="55851.9" x2="6129.81" y2="61491.7" gradientUnits="userSpaceOnUse">
<stop stop-color="#E0E0E0"/>
<stop offset="0.31" stop-color="#FCCC63"/>
<stop offset="0.77" stop-color="#F55F44"/>
</linearGradient>
<linearGradient id="paint4_linear" x1="67.888" y1="310.035" x2="67.888" y2="0.0149307" gradientUnits="userSpaceOnUse">
<stop stop-color="#808080" stop-opacity="0.25"/>
<stop offset="0.54" stop-color="#808080" stop-opacity="0.12"/>
<stop offset="1" stop-color="#808080" stop-opacity="0.1"/>
</linearGradient>
</defs>
</svg>
