<svg width="998" height="655" viewBox="0 0 998 655" fill="none" xmlns="http://www.w3.org/2000/svg">
<ellipse cx="499" cy="327.5" rx="499" ry="327.5" fill="url(#paint0_radial)"/>
<g clip-path="url(#clip0)">
<path d="M812.85 119.362H552.681V114H434.71V119.362H173.468C171.157 119.362 168.868 119.818 166.733 120.702C164.598 121.586 162.658 122.883 161.024 124.517C159.39 126.151 158.093 128.091 157.209 130.226C156.324 132.361 155.869 134.65 155.869 136.961V493.213C155.869 497.88 157.723 502.357 161.024 505.657C164.324 508.957 168.8 510.812 173.468 510.812H812.85C815.162 510.812 817.45 510.356 819.585 509.472C821.72 508.588 823.66 507.291 825.295 505.657C826.929 504.023 828.225 502.083 829.109 499.948C829.994 497.813 830.449 495.524 830.449 493.213V136.961C830.449 134.65 829.994 132.361 829.109 130.226C828.225 128.091 826.929 126.151 825.295 124.517C823.66 122.883 821.72 121.586 819.585 120.702C817.45 119.818 815.162 119.362 812.85 119.362Z" fill="#3F3D56"/>
<path d="M806.855 150.464H179.464V504.377H806.855V150.464Z" fill="#121214"/>
<path d="M848.065 497.942H786.836V493.53C786.836 493.416 786.813 493.302 786.769 493.196C786.725 493.09 786.661 492.993 786.579 492.912C786.498 492.831 786.402 492.766 786.296 492.722C786.189 492.678 786.076 492.656 785.961 492.656H764.968C764.853 492.656 764.739 492.678 764.633 492.722C764.527 492.766 764.431 492.831 764.349 492.912C764.268 492.993 764.204 493.09 764.16 493.196C764.116 493.302 764.093 493.416 764.093 493.53V497.942H750.973V493.53C750.973 493.416 750.95 493.302 750.906 493.196C750.862 493.09 750.798 492.993 750.716 492.912C750.635 492.831 750.539 492.766 750.433 492.722C750.327 492.678 750.213 492.656 750.098 492.656H729.105C728.99 492.656 728.876 492.678 728.77 492.722C728.664 492.766 728.568 492.831 728.487 492.912C728.405 492.993 728.341 493.09 728.297 493.196C728.253 493.302 728.23 493.416 728.23 493.53V497.942H715.11V493.53C715.11 493.416 715.087 493.302 715.043 493.196C714.999 493.09 714.935 492.993 714.854 492.912C714.772 492.831 714.676 492.766 714.57 492.722C714.464 492.678 714.35 492.656 714.235 492.656H693.242C693.127 492.656 693.013 492.678 692.907 492.722C692.801 492.766 692.705 492.831 692.624 492.912C692.542 492.993 692.478 493.09 692.434 493.196C692.39 493.302 692.367 493.416 692.367 493.53V497.942H679.247V493.53C679.247 493.416 679.224 493.302 679.18 493.196C679.136 493.09 679.072 492.993 678.991 492.912C678.909 492.831 678.813 492.766 678.707 492.722C678.601 492.678 678.487 492.656 678.372 492.656H657.379C657.264 492.656 657.151 492.678 657.044 492.722C656.938 492.766 656.842 492.831 656.761 492.912C656.68 492.993 656.615 493.09 656.571 493.196C656.527 493.302 656.505 493.416 656.505 493.53V497.942H643.384V493.53C643.384 493.416 643.361 493.302 643.317 493.196C643.273 493.09 643.209 492.993 643.128 492.912C643.047 492.831 642.95 492.766 642.844 492.722C642.738 492.678 642.624 492.656 642.509 492.656H621.516C621.401 492.656 621.288 492.678 621.182 492.722C621.076 492.766 620.979 492.831 620.898 492.912C620.817 492.993 620.752 493.09 620.708 493.196C620.664 493.302 620.642 493.416 620.642 493.53V497.942H607.521V493.53C607.521 493.416 607.498 493.302 607.455 493.196C607.411 493.09 607.346 492.993 607.265 492.912C607.184 492.831 607.087 492.766 606.981 492.722C606.875 492.678 606.761 492.656 606.646 492.656H585.654C585.539 492.656 585.425 492.678 585.319 492.722C585.213 492.766 585.116 492.831 585.035 492.912C584.954 492.993 584.889 493.09 584.845 493.196C584.801 493.302 584.779 493.416 584.779 493.53V497.942H571.658V493.53C571.658 493.416 571.636 493.302 571.592 493.196C571.548 493.09 571.483 492.993 571.402 492.912C571.321 492.831 571.224 492.766 571.118 492.722C571.012 492.678 570.898 492.656 570.784 492.656H406.339C406.224 492.656 406.11 492.678 406.004 492.722C405.898 492.766 405.802 492.831 405.721 492.912C405.639 492.993 405.575 493.09 405.531 493.196C405.487 493.302 405.464 493.416 405.464 493.53V497.942H392.344V493.53C392.344 493.416 392.321 493.302 392.277 493.196C392.233 493.09 392.169 492.993 392.088 492.912C392.006 492.831 391.91 492.766 391.804 492.722C391.698 492.678 391.584 492.656 391.469 492.656H370.476C370.361 492.656 370.248 492.678 370.141 492.722C370.035 492.766 369.939 492.831 369.858 492.912C369.776 492.993 369.712 493.09 369.668 493.196C369.624 493.302 369.601 493.416 369.601 493.53V497.942H356.481V493.53C356.481 493.416 356.458 493.302 356.414 493.196C356.37 493.09 356.306 492.993 356.225 492.912C356.143 492.831 356.047 492.766 355.941 492.722C355.835 492.678 355.721 492.656 355.606 492.656H334.613C334.498 492.656 334.385 492.678 334.279 492.722C334.172 492.766 334.076 492.831 333.995 492.912C333.914 492.993 333.849 493.09 333.805 493.196C333.761 493.302 333.739 493.416 333.739 493.53V497.942H320.618V493.53C320.618 493.416 320.595 493.302 320.551 493.196C320.507 493.09 320.443 492.993 320.362 492.912C320.281 492.831 320.184 492.766 320.078 492.722C319.972 492.678 319.858 492.656 319.743 492.656H298.75C298.636 492.656 298.522 492.678 298.416 492.722C298.31 492.766 298.213 492.831 298.132 492.912C298.051 492.993 297.986 493.09 297.942 493.196C297.898 493.302 297.876 493.416 297.876 493.53V497.942H284.755V493.53C284.755 493.416 284.733 493.302 284.689 493.196C284.645 493.09 284.58 492.993 284.499 492.912C284.418 492.831 284.321 492.766 284.215 492.722C284.109 492.678 283.995 492.656 283.88 492.656H262.887C262.773 492.656 262.659 492.678 262.553 492.722C262.447 492.766 262.35 492.831 262.269 492.912C262.188 492.993 262.123 493.09 262.079 493.196C262.035 493.302 262.013 493.416 262.013 493.53V497.942H248.892V493.53C248.892 493.416 248.87 493.302 248.826 493.196C248.782 493.09 248.717 492.993 248.636 492.912C248.555 492.831 248.458 492.766 248.352 492.722C248.246 492.678 248.132 492.656 248.018 492.656H227.025C226.91 492.656 226.796 492.678 226.69 492.722C226.584 492.766 226.487 492.831 226.406 492.912C226.325 492.993 226.26 493.09 226.217 493.196C226.173 493.302 226.15 493.416 226.15 493.53V497.942H213.029V493.53C213.029 493.416 213.007 493.302 212.963 493.196C212.919 493.09 212.854 492.993 212.773 492.912C212.692 492.831 212.596 492.766 212.489 492.722C212.383 492.678 212.27 492.656 212.155 492.656H191.162C191.047 492.656 190.933 492.678 190.827 492.722C190.721 492.766 190.624 492.831 190.543 492.912C190.462 492.993 190.398 493.09 190.354 493.196C190.31 493.302 190.287 493.416 190.287 493.53V497.942H150.051C144.483 497.942 139.143 500.154 135.206 504.091C131.269 508.028 129.058 513.367 129.058 518.935V528.427C129.058 533.995 131.27 539.335 135.206 543.272C139.143 547.209 144.483 549.42 150.051 549.42H848.065C853.632 549.42 858.972 547.209 862.909 543.272C866.846 539.335 869.058 533.995 869.058 528.427V518.935C869.058 513.367 866.846 508.028 862.909 504.091C858.972 500.154 853.633 497.942 848.065 497.942Z" fill="#3F3D56"/>
<path d="M955.404 527.884H42.7113V530.669H955.404V527.884Z" fill="#3F3D56"/>
</g>
<defs>
<radialGradient id="paint0_radial" cx="0" cy="0" r="1" gradientUnits="userSpaceOnUse" gradientTransform="translate(499 327.5) rotate(90) scale(327.5 499)">
<stop stop-color="#616161"/>
<stop offset="1" stop-color="#121214" stop-opacity="0"/>
</radialGradient>
<clipPath id="clip0">
<rect width="941.404" height="435.42" fill="white" transform="translate(14 114)"/>
</clipPath>
</defs>
</svg>
