<svg width="998" height="655" viewBox="0 0 998 655" fill="none" xmlns="http://www.w3.org/2000/svg">
<ellipse cx="499" cy="327.5" rx="499" ry="327.5" fill="url(#paint0_radial)"/>
<g clip-path="url(#clip0)">
<path d="M812.85 119.362H552.681V114H434.71V119.362H173.468C171.157 119.362 168.868 119.818 166.733 120.702C164.598 121.586 162.658 122.883 161.024 124.517C159.39 126.151 158.093 128.091 157.209 130.226C156.324 132.361 155.869 134.65 155.869 136.961V493.213C155.869 497.88 157.723 502.357 161.024 505.657C164.324 508.957 168.8 510.812 173.468 510.812H812.85C815.162 510.812 817.45 510.356 819.585 509.472C821.72 508.588 823.66 507.291 825.295 505.657C826.929 504.023 828.225 502.083 829.109 499.948C829.994 497.813 830.449 495.524 830.449 493.213V136.961C830.449 134.65 829.994 132.361 829.109 130.226C828.225 128.091 826.929 126.151 825.295 124.517C823.66 122.883 821.72 121.586 819.585 120.702C817.45 119.818 815.162 119.362 812.85 119.362Z" fill="#3F3D56"/>
<path d="M806.855 150.464H179.464V504.377H806.855V150.464Z" fill="#121214"/>
<path d="M848.065 497.942H786.836V493.53C786.836 493.416 786.813 493.302 786.769 493.196C786.725 493.09 786.661 492.993 786.579 492.912C786.498 492.831 786.402 492.766 786.296 492.722C786.189 492.678 786.076 492.656 785.961 492.656H764.968C764.853 492.656 764.739 492.678 764.633 492.722C764.527 492.766 764.431 492.831 764.349 492.912C764.268 492.993 764.204 493.09 764.16 493.196C764.116 493.302 764.093 493.416 764.093 493.53V497.942H750.973V493.53C750.973 493.416 750.95 493.302 750.906 493.196C750.862 493.09 750.798 492.993 750.716 492.912C750.635 492.831 750.539 492.766 750.433 492.722C750.327 492.678 750.213 492.656 750.098 492.656H729.105C728.99 492.656 728.876 492.678 728.77 492.722C728.664 492.766 728.568 492.831 728.487 492.912C728.405 492.993 728.341 493.09 728.297 493.196C728.253 493.302 728.23 493.416 728.23 493.53V497.942H715.11V493.53C715.11 493.416 715.087 493.302 715.043 493.196C714.999 493.09 714.935 492.993 714.854 492.912C714.772 492.831 714.676 492.766 714.57 492.722C714.464 492.678 714.35 492.656 714.235 492.656H693.242C693.127 492.656 693.013 492.678 692.907 492.722C692.801 492.766 692.705 492.831 692.624 492.912C692.542 492.993 692.478 493.09 692.434 493.196C692.39 493.302 692.367 493.416 692.367 493.53V497.942H679.247V493.53C679.247 493.416 679.224 493.302 679.18 493.196C679.136 493.09 679.072 492.993 678.991 492.912C678.909 492.831 678.813 492.766 678.707 492.722C678.601 492.678 678.487 492.656 678.372 492.656H657.379C657.264 492.656 657.151 492.678 657.044 492.722C656.938 492.766 656.842 492.831 656.761 492.912C656.68 492.993 656.615 493.09 656.571 493.196C656.527 493.302 656.505 493.416 656.505 493.53V497.942H643.384V493.53C643.384 493.416 643.361 493.302 643.317 493.196C643.273 493.09 643.209 492.993 643.128 492.912C643.047 492.831 642.95 492.766 642.844 492.722C642.738 492.678 642.624 492.656 642.509 492.656H621.516C621.401 492.656 621.288 492.678 621.182 492.722C621.076 492.766 620.979 492.831 620.898 492.912C620.817 492.993 620.752 493.09 620.708 493.196C620.664 493.302 620.642 493.416 620.642 493.53V497.942H607.521V493.53C607.521 493.416 607.498 493.302 607.455 493.196C607.411 493.09 607.346 492.993 607.265 492.912C607.184 492.831 607.087 492.766 606.981 492.722C606.875 492.678 606.761 492.656 606.646 492.656H585.654C585.539 492.656 585.425 492.678 585.319 492.722C585.213 492.766 585.116 492.831 585.035 492.912C584.954 492.993 584.889 493.09 584.845 493.196C584.801 493.302 584.779 493.416 584.779 493.53V497.942H571.658V493.53C571.658 493.416 571.636 493.302 571.592 493.196C571.548 493.09 571.483 492.993 571.402 492.912C571.321 492.831 571.224 492.766 571.118 492.722C571.012 492.678 570.898 492.656 570.784 492.656H406.339C406.224 492.656 406.11 492.678 406.004 492.722C405.898 492.766 405.802 492.831 405.721 492.912C405.639 492.993 405.575 493.09 405.531 493.196C405.487 493.302 405.464 493.416 405.464 493.53V497.942H392.344V493.53C392.344 493.416 392.321 493.302 392.277 493.196C392.233 493.09 392.169 492.993 392.088 492.912C392.006 492.831 391.91 492.766 391.804 492.722C391.698 492.678 391.584 492.656 391.469 492.656H370.476C370.361 492.656 370.248 492.678 370.141 492.722C370.035 492.766 369.939 492.831 369.858 492.912C369.776 492.993 369.712 493.09 369.668 493.196C369.624 493.302 369.601 493.416 369.601 493.53V497.942H356.481V493.53C356.481 493.416 356.458 493.302 356.414 493.196C356.37 493.09 356.306 492.993 356.225 492.912C356.143 492.831 356.047 492.766 355.941 492.722C355.835 492.678 355.721 492.656 355.606 492.656H334.613C334.498 492.656 334.385 492.678 334.279 492.722C334.172 492.766 334.076 492.831 333.995 492.912C333.914 492.993 333.849 493.09 333.805 493.196C333.761 493.302 333.739 493.416 333.739 493.53V497.942H320.618V493.53C320.618 493.416 320.595 493.302 320.551 493.196C320.507 493.09 320.443 492.993 320.362 492.912C320.281 492.831 320.184 492.766 320.078 492.722C319.972 492.678 319.858 492.656 319.743 492.656H298.75C298.636 492.656 298.522 492.678 298.416 492.722C298.31 492.766 298.213 492.831 298.132 492.912C298.051 492.993 297.986 493.09 297.942 493.196C297.898 493.302 297.876 493.416 297.876 493.53V497.942H284.755V493.53C284.755 493.416 284.733 493.302 284.689 493.196C284.645 493.09 284.58 492.993 284.499 492.912C284.418 492.831 284.321 492.766 284.215 492.722C284.109 492.678 283.995 492.656 283.88 492.656H262.887C262.773 492.656 262.659 492.678 262.553 492.722C262.447 492.766 262.35 492.831 262.269 492.912C262.188 492.993 262.123 493.09 262.079 493.196C262.035 493.302 262.013 493.416 262.013 493.53V497.942H248.892V493.53C248.892 493.416 248.87 493.302 248.826 493.196C248.782 493.09 248.717 492.993 248.636 492.912C248.555 492.831 248.458 492.766 248.352 492.722C248.246 492.678 248.132 492.656 248.018 492.656H227.025C226.91 492.656 226.796 492.678 226.69 492.722C226.584 492.766 226.487 492.831 226.406 492.912C226.325 492.993 226.26 493.09 226.217 493.196C226.173 493.302 226.15 493.416 226.15 493.53V497.942H213.029V493.53C213.029 493.416 213.007 493.302 212.963 493.196C212.919 493.09 212.854 492.993 212.773 492.912C212.692 492.831 212.596 492.766 212.489 492.722C212.383 492.678 212.27 492.656 212.155 492.656H191.162C191.047 492.656 190.933 492.678 190.827 492.722C190.721 492.766 190.624 492.831 190.543 492.912C190.462 492.993 190.398 493.09 190.354 493.196C190.31 493.302 190.287 493.416 190.287 493.53V497.942H150.051C144.483 497.942 139.143 500.154 135.206 504.091C131.269 508.028 129.058 513.367 129.058 518.935V528.427C129.058 533.995 131.27 539.335 135.206 543.272C139.143 547.209 144.483 549.42 150.051 549.42H848.065C853.632 549.42 858.972 547.209 862.909 543.272C866.846 539.335 869.058 533.995 869.058 528.427V518.935C869.058 513.367 866.846 508.028 862.909 504.091C858.972 500.154 853.633 497.942 848.065 497.942Z" fill="#3F3D56"/>
<path d="M955.404 527.884H42.7113V530.669H955.404V527.884Z" fill="#3F3D56"/>
</g>
<path d="M451.76 376H440.688V466.05H451.76V376Z" fill="url(#paint1_linear)"/>
<path d="M487.743 376H476.672V466.05H487.743V376Z" fill="url(#paint2_linear)"/>
<path d="M510.285 376H499.213V466.05H510.285V376Z" fill="url(#paint3_linear)"/>
<path d="M546.666 376H535.595V466.05H546.666V376Z" fill="url(#paint4_linear)"/>
<g opacity="0.7">
<path opacity="0.7" d="M560.771 246.305C560.809 234.612 558.01 223.085 552.612 212.712C550.05 207.841 547.713 204.813 545.894 202.955C545.208 202.228 544.312 201.733 543.331 201.539C542.35 201.346 541.334 201.463 540.423 201.876C539.695 202.133 539.037 202.557 538.503 203.114C536.07 205.633 533.872 208.964 531.952 212.51C526.274 223.126 523.327 234.987 523.376 247.025V254.253H518.741V170.269C518.741 152.666 514.801 135.298 507.084 119.879C503.427 112.579 500.091 108.044 497.524 105.256C496.902 104.547 496.136 103.979 495.277 103.59C494.418 103.201 493.486 103 492.542 103C491.599 103 490.667 103.201 489.808 103.59C488.949 103.979 488.183 104.547 487.561 105.256C484.087 109.033 480.953 114.024 478.212 119.332C470.097 135.068 465.975 152.925 465.975 171.051V254.253H461.968V246.68C462.017 234.641 459.07 222.78 453.392 212.165C451.472 208.623 449.274 205.293 446.841 202.768C446.141 202.031 445.224 201.535 444.223 201.352C443.223 201.169 442.19 201.309 441.274 201.751L441.442 201.842C440.854 202.102 440.323 202.473 439.878 202.936C438.078 204.794 435.741 207.822 433.159 212.693C427.761 223.066 424.962 234.593 425 246.286V371.849H439.302L437.742 382.172V413.035H449.432V382.172L447.873 371.849H461.968V257.502H465.975V371.336H477.397L475.755 382.167V413.035H487.451V382.172L485.809 371.34H501.2L499.559 382.172V413.035H511.254V382.172L509.613 371.34H518.731V257.502H523.367V372.022H527.125V371.849H539.549L537.99 382.172V413.035H549.685V382.172L548.125 371.849H560.771V246.305Z" fill="url(#paint5_linear)"/>
</g>
<path d="M451.76 376.154H440.688L442.666 362.712H449.783L451.76 376.154Z" fill="#535461"/>
<g opacity="0.1">
<path opacity="0.1" d="M442.114 368.048H450.335L449.783 364.291H442.666L442.114 368.048Z" fill="black"/>
</g>
<path d="M546.666 376.154H535.595L537.572 362.712H544.689L546.666 376.154Z" fill="#535461"/>
<g opacity="0.1">
<path opacity="0.1" d="M537.02 368.048H545.241L544.689 364.291H537.572L537.02 368.048Z" fill="black"/>
</g>
<path d="M487.748 376.154H476.672L478.649 362.712H485.771L487.748 376.154Z" fill="#535461"/>
<g opacity="0.1">
<path opacity="0.1" d="M478.097 368.048H486.323L485.771 364.291H478.649L478.097 368.048Z" fill="black"/>
</g>
<path d="M510.285 376.154H499.213L501.19 362.712H508.307L510.285 376.154Z" fill="#535461"/>
<g opacity="0.1">
<path opacity="0.1" d="M500.638 368.048H508.864L508.307 364.291H501.19L500.638 368.048Z" fill="black"/>
</g>
<path d="M530.849 251.589H451.76V254.752H530.849V251.589Z" fill="#535461"/>
<path d="M543.077 201.617C542.659 201.155 542.149 200.787 541.58 200.534C541.011 200.282 540.395 200.151 539.772 200.151C539.15 200.151 538.534 200.282 537.965 200.534C537.396 200.787 536.886 201.155 536.468 201.617C534.165 204.069 532.087 207.313 530.268 210.764C524.886 221.14 522.101 232.668 522.153 244.357V366.105H557.152V243.853C557.196 232.484 554.547 221.267 549.421 211.119C546.993 206.377 544.78 203.426 543.077 201.617Z" fill="#E0E0E0"/>
<path d="M442.714 201.617C443.132 201.155 443.642 200.787 444.211 200.534C444.78 200.282 445.395 200.151 446.018 200.151C446.64 200.151 447.256 200.282 447.825 200.534C448.394 200.787 448.904 201.155 449.322 201.617C451.626 204.069 453.704 207.313 455.522 210.764C460.905 221.14 463.689 232.668 463.638 244.357V366.105H428.628V243.853C428.584 232.484 431.234 221.267 436.36 211.119C438.783 206.377 440.996 203.426 442.714 201.617Z" fill="#E0E0E0"/>
<path d="M428.825 246.449L437.128 246.488V256.729H428.825V246.449Z" fill="#535461"/>
<path d="M455.321 246.449L463.623 246.488V256.729H455.321V246.449Z" fill="#535461"/>
<path d="M522.148 246.449L530.455 246.488V256.729H522.148V246.449Z" fill="#535461"/>
<path d="M548.644 246.449L556.951 246.488V256.729H548.644V246.449Z" fill="#535461"/>
<g opacity="0.1">
<path opacity="0.1" d="M455.508 210.605C453.694 207.155 451.611 203.911 449.308 201.458C448.657 200.739 447.788 200.253 446.835 200.074C445.882 199.894 444.896 200.032 444.029 200.465C444.529 200.714 444.98 201.051 445.363 201.458C447.666 203.911 449.744 207.155 451.563 210.605C456.946 220.982 459.73 232.509 459.678 244.199V365.937H463.633V244.213C463.684 232.518 460.896 220.985 455.508 210.605Z" fill="black"/>
</g>
<g opacity="0.1">
<path opacity="0.1" d="M533.416 210.941C535.23 207.491 537.313 204.246 539.617 201.794C540.048 201.33 540.569 200.958 541.147 200.7C540.292 200.325 539.34 200.229 538.427 200.426C537.514 200.622 536.686 201.101 536.06 201.794C533.757 204.246 531.679 207.491 529.86 210.941C524.478 221.318 521.693 232.845 521.745 244.535V366.273H525.306V244.554C525.249 232.858 528.033 221.324 533.416 210.941Z" fill="black"/>
</g>
<path d="M497.279 106.163C496.701 105.476 495.979 104.923 495.165 104.544C494.35 104.165 493.462 103.968 492.564 103.968C491.666 103.968 490.778 104.165 489.964 104.544C489.149 104.923 488.427 105.476 487.849 106.163C484.562 109.839 481.61 114.701 479 119.874C471.321 135.202 467.415 152.599 467.415 170.24V365.605H517.368V169.453C517.368 152.311 513.639 135.38 506.33 120.402C502.87 113.295 499.712 108.879 497.279 106.163Z" fill="#EEEEEE"/>
<path d="M499.799 127.865H484.293C481.377 127.865 479.014 130.228 479.014 133.143V134.53C479.014 137.446 481.377 139.809 484.293 139.809H499.799C502.714 139.809 505.078 137.446 505.078 134.53V133.143C505.078 130.228 502.714 127.865 499.799 127.865Z" fill="#F9A826"/>
<g clip-path="url(#clip1)">
<g opacity="0.7">
<path opacity="0.7" d="M638.877 440.416C636.891 428.442 630.466 417.657 620.883 410.21C611.3 402.762 599.263 399.199 587.17 400.231C575.077 401.263 563.817 406.814 555.634 415.778C547.452 424.741 542.947 436.459 543.019 448.596C543.019 448.834 543.019 449.066 543.019 449.305C541.234 449.575 539.467 449.954 537.728 450.439C535.501 441.569 530.572 433.612 523.622 427.668C516.672 421.725 508.047 418.089 498.939 417.264C489.832 416.44 480.694 418.467 472.79 423.066C464.886 427.665 458.607 434.608 454.823 442.933C450.923 441.428 446.827 440.492 442.661 440.154C441.996 436.381 440.882 432.702 439.341 429.195C438.618 418.129 433.749 407.742 425.706 400.107C417.664 392.473 407.038 388.151 395.949 388.004C384.861 387.857 374.124 391.896 365.882 399.316C357.64 406.735 352.499 416.989 351.483 428.032C349.2 432.866 347.742 438.048 347.169 443.363C337.077 447.562 328.903 455.358 324.232 465.24C319.56 475.122 318.724 486.387 321.885 496.85H675.12C676.962 490.747 677.458 484.317 676.575 478.004C675.692 471.69 673.451 465.643 670.006 460.279C666.561 454.915 661.995 450.362 656.621 446.933C651.247 443.503 645.193 441.28 638.877 440.416Z" fill="url(#paint6_linear)"/>
</g>
<path d="M395.359 476.147C419.7 476.147 439.433 456.415 439.433 432.074C439.433 407.732 419.7 388 395.359 388C371.018 388 351.286 407.732 351.286 432.074C351.286 456.415 371.018 476.147 395.359 476.147Z" fill="url(#paint7_linear)"/>
<path d="M395.141 496.862C421.795 496.862 443.403 475.254 443.403 448.6C443.403 421.946 421.795 400.339 395.141 400.339C368.487 400.339 346.88 421.946 346.88 448.6C346.88 475.254 368.487 496.862 395.141 496.862Z" fill="url(#paint8_linear)"/>
<path d="M591.273 496.862C617.927 496.862 639.535 475.254 639.535 448.6C639.535 421.946 617.927 400.339 591.273 400.339C564.619 400.339 543.012 421.946 543.012 448.6C543.012 475.254 564.619 496.862 591.273 496.862Z" fill="url(#paint9_linear)"/>
<path d="M588.846 496.862C613.188 496.862 632.92 477.129 632.92 452.788C632.92 428.447 613.188 408.714 588.846 408.714C564.505 408.714 544.773 428.447 544.773 452.788C544.773 477.129 564.505 496.862 588.846 496.862Z" fill="url(#paint10_linear)"/>
<path d="M539.042 461.164C539.049 468.133 537.4 475.005 534.231 481.212C531.062 487.42 526.464 492.786 520.815 496.868H469.116C462.997 492.445 458.116 486.525 454.941 479.675C451.766 472.826 450.403 465.275 450.982 457.747C451.562 450.22 454.065 442.967 458.252 436.684C462.438 430.401 468.168 425.298 474.892 421.865C481.616 418.431 489.109 416.781 496.653 417.074C504.198 417.367 511.541 419.592 517.978 423.536C524.416 427.48 529.733 433.012 533.421 439.6C537.108 446.189 539.041 453.614 539.036 461.164H539.042Z" fill="url(#paint11_linear)"/>
<path d="M593.7 492.898C593.7 494.217 593.641 495.523 593.524 496.814C593.529 496.831 593.529 496.85 593.524 496.868H505.728C505.607 495.561 505.546 494.236 505.546 492.904C505.539 482.358 509.317 472.159 516.194 464.163C523.071 456.166 532.589 450.904 543.018 449.333C545.197 449.005 547.398 448.839 549.602 448.837C550.728 448.837 551.847 448.879 552.954 448.958C560.854 449.562 568.445 452.282 574.93 456.834C581.415 461.385 586.555 467.598 589.809 474.822C589.99 475.221 590.166 475.627 590.329 476.032C592.555 481.377 593.7 487.109 593.7 492.898Z" fill="url(#paint12_linear)"/>
<path d="M677 484.081C677.005 488.411 676.369 492.718 675.112 496.862H590.753C588.713 490.085 588.325 482.918 589.621 475.96C589.694 475.578 589.766 475.191 589.851 474.816C591.975 464.962 597.411 456.134 605.253 449.801C613.095 443.468 622.871 440.014 632.951 440.013C634.336 440.013 635.698 440.074 637.047 440.207C637.653 440.255 638.258 440.328 638.863 440.407C649.426 441.844 659.111 447.061 666.123 455.091C673.135 463.121 676.999 473.42 677 484.081Z" fill="url(#paint13_linear)"/>
<path d="M406.258 496.868C406.403 496.408 406.53 495.948 406.658 495.482C408.664 487.978 408.653 480.077 406.626 472.579C404.598 465.081 400.627 458.251 395.112 452.78C389.598 447.31 382.737 443.392 375.223 441.425C367.709 439.457 359.808 439.509 352.32 441.575C350.567 442.056 348.847 442.65 347.17 443.354C337.077 447.553 328.902 455.35 324.23 465.234C319.559 475.118 318.724 486.385 321.887 496.85H406.258V496.868Z" fill="url(#paint14_linear)"/>
<path d="M503.292 496.614C503.474 496.031 503.634 495.449 503.793 494.859C506.314 485.359 506.3 475.357 503.753 465.863C501.206 456.37 496.217 447.724 489.29 440.798C482.362 433.872 473.743 428.912 464.303 426.421C454.864 423.93 444.939 423.995 435.532 426.611C433.33 427.22 431.168 427.972 429.063 428.863C416.382 434.18 406.113 444.052 400.244 456.565C394.376 469.078 393.326 483.342 397.3 496.591H503.292V496.614Z" fill="url(#paint15_linear)"/>
<g opacity="0.7">
<path opacity="0.7" d="M603.94 418.925C607.481 418.925 610.352 416.054 610.352 412.513C610.352 408.972 607.481 406.102 603.94 406.102C600.399 406.102 597.529 408.972 597.529 412.513C597.529 416.054 600.399 418.925 603.94 418.925Z" fill="url(#paint16_linear)"/>
</g>
<path d="M658.941 408.882C662.223 408.882 664.882 406.223 664.882 402.941C664.882 399.66 662.223 397 658.941 397C655.66 397 653 399.66 653 402.941C653 406.223 655.66 408.882 658.941 408.882Z" fill="url(#paint17_linear)"/>
<g opacity="0.7">
<path opacity="0.7" d="M657.992 408.984C661.854 408.984 664.984 405.854 664.984 401.992C664.984 398.131 661.854 395 657.992 395C654.131 395 651 398.131 651 401.992C651 405.854 654.131 408.984 657.992 408.984Z" fill="url(#paint18_linear)"/>
</g>
<path d="M633.301 481.02C636.969 481.02 639.943 478.046 639.943 474.378C639.943 470.71 636.969 467.736 633.301 467.736C629.632 467.736 626.659 470.71 626.659 474.378C626.659 478.046 629.632 481.02 633.301 481.02Z" fill="url(#paint19_linear)"/>
<g opacity="0.7">
<path opacity="0.7" d="M311.683 426.367C315.927 426.367 319.367 422.927 319.367 418.683C319.367 414.44 315.927 411 311.683 411C307.44 411 304 414.44 304 418.683C304 422.927 307.44 426.367 311.683 426.367Z" fill="url(#paint20_linear)"/>
</g>
<path d="M312.338 427.676C316.39 427.676 319.676 424.39 319.676 420.338C319.676 416.285 316.39 413 312.338 413C308.285 413 305 416.285 305 420.338C305 424.39 308.285 427.676 312.338 427.676Z" fill="url(#paint21_linear)"/>
<path opacity="0.25" d="M609.881 290.881C611.233 290.881 612.329 289.785 612.329 288.433C612.329 287.082 611.233 285.986 609.881 285.986C608.529 285.986 607.434 287.082 607.434 288.433C607.434 289.785 608.529 290.881 609.881 290.881Z" fill="#535461"/>
<path opacity="0.25" d="M283.545 355.188C284.897 355.188 285.992 354.093 285.992 352.741C285.992 351.389 284.897 350.293 283.545 350.293C282.193 350.293 281.097 351.389 281.097 352.741C281.097 354.093 282.193 355.188 283.545 355.188Z" fill="#535461"/>
<path opacity="0.25" d="M704.423 369.106C705.775 369.106 706.87 368.01 706.87 366.658C706.87 365.306 705.775 364.211 704.423 364.211C703.071 364.211 701.975 365.306 701.975 366.658C701.975 368.01 703.071 369.106 704.423 369.106Z" fill="#535461"/>
<path opacity="0.25" d="M401.563 253.131C402.915 253.131 404.011 252.036 404.011 250.684C404.011 249.332 402.915 248.236 401.563 248.236C400.212 248.236 399.116 249.332 399.116 250.684C399.116 252.036 400.212 253.131 401.563 253.131Z" fill="#535461"/>
<path opacity="0.25" d="M393.525 196.858C394.877 196.858 395.973 195.762 395.973 194.41C395.973 193.058 394.877 191.963 393.525 191.963C392.173 191.963 391.078 193.058 391.078 194.41C391.078 195.762 392.173 196.858 393.525 196.858Z" fill="#535461"/>
<path opacity="0.25" d="M323.996 308.34C325.348 308.34 326.444 307.244 326.444 305.892C326.444 304.541 325.348 303.445 323.996 303.445C322.644 303.445 321.549 304.541 321.549 305.892C321.549 307.244 322.644 308.34 323.996 308.34Z" fill="#535461"/>
<path opacity="0.25" d="M670.527 308.781H668.348V306.607H667.461V308.781H665.282V309.674H667.461V311.848H668.348V309.674H670.527V308.781Z" fill="#535461"/>
<path opacity="0.25" d="M707 233.436H704.821V231.262H703.933V233.436H701.755V234.329H703.933V236.503H704.821V234.329H707V233.436Z" fill="#535461"/>
<path opacity="0.25" d="M551.688 191.343H549.509V189.165H548.621V191.343H546.442V192.231H548.621V194.41H549.509V192.231H551.688V191.343Z" fill="#535461"/>
<path opacity="0.25" d="M646.757 296.549H644.579V294.375H643.691V296.549H641.517V297.441H643.691V299.615H644.579V297.441H646.757V296.549Z" fill="#535461"/>
<path opacity="0.25" d="M567.064 368.899H564.89V366.725H564.002V368.899H561.823V369.792H564.002V371.966H564.89V369.792H567.064V368.899Z" fill="#535461"/>
<path opacity="0.25" d="M344.071 219.653H341.892V217.479H341.004V219.653H338.825V220.541H341.004V222.72H341.892V220.541H344.071V219.653Z" fill="#535461"/>
<path opacity="0.25" d="M268.245 247.968H266.067V245.794H265.179V247.968H263V248.856H265.179V251.034H266.067V248.856H268.245V247.968Z" fill="#535461"/>
<path opacity="0.25" d="M374.127 337.096H371.948V334.917H371.061V337.096H368.887V337.984H371.061V340.163H371.948V337.984H374.127V337.096Z" fill="#535461"/>
<path d="M633.301 481.02C636.969 481.02 639.943 478.046 639.943 474.378C639.943 470.71 636.969 467.736 633.301 467.736C629.632 467.736 626.659 470.71 626.659 474.378C626.659 478.046 629.632 481.02 633.301 481.02Z" fill="url(#paint22_linear)"/>
<g opacity="0.1">
<path opacity="0.1" d="M499.877 219.965H450.447V221.885H499.877V219.965Z" fill="black"/>
</g>
</g>
<defs>
<radialGradient id="paint0_radial" cx="0" cy="0" r="1" gradientUnits="userSpaceOnUse" gradientTransform="translate(499 327.5) rotate(90) scale(327.5 499)">
<stop stop-color="#616161"/>
<stop offset="1" stop-color="#121214" stop-opacity="0"/>
</radialGradient>
<linearGradient id="paint1_linear" x1="446.222" y1="376" x2="446.222" y2="466.064" gradientUnits="userSpaceOnUse">
<stop stop-color="#E0E0E0"/>
<stop offset="0.31" stop-color="#FCCC63"/>
<stop offset="0.77" stop-color="#F55F44"/>
</linearGradient>
<linearGradient id="paint2_linear" x1="5136.53" y1="55954.9" x2="5136.53" y2="61594.7" gradientUnits="userSpaceOnUse">
<stop stop-color="#E0E0E0"/>
<stop offset="0.31" stop-color="#FCCC63"/>
<stop offset="0.77" stop-color="#F55F44"/>
</linearGradient>
<linearGradient id="paint3_linear" x1="5679.1" y1="55954.9" x2="5679.1" y2="61594.7" gradientUnits="userSpaceOnUse">
<stop stop-color="#E0E0E0"/>
<stop offset="0.31" stop-color="#FCCC63"/>
<stop offset="0.77" stop-color="#F55F44"/>
</linearGradient>
<linearGradient id="paint4_linear" x1="6554.81" y1="55954.9" x2="6554.81" y2="61594.7" gradientUnits="userSpaceOnUse">
<stop stop-color="#E0E0E0"/>
<stop offset="0.31" stop-color="#FCCC63"/>
<stop offset="0.77" stop-color="#F55F44"/>
</linearGradient>
<linearGradient id="paint5_linear" x1="492.888" y1="413.035" x2="492.888" y2="103.015" gradientUnits="userSpaceOnUse">
<stop stop-color="#808080" stop-opacity="0.25"/>
<stop offset="0.54" stop-color="#808080" stop-opacity="0.12"/>
<stop offset="1" stop-color="#808080" stop-opacity="0.1"/>
</linearGradient>
<linearGradient id="paint6_linear" x1="207576" y1="91283.4" x2="207576" y2="70900.1" gradientUnits="userSpaceOnUse">
<stop stop-color="#808080" stop-opacity="0.25"/>
<stop offset="0.54" stop-color="#808080" stop-opacity="0.12"/>
<stop offset="1" stop-color="#808080" stop-opacity="0.1"/>
</linearGradient>
<linearGradient id="paint7_linear" x1="395.359" y1="388" x2="395.359" y2="476.147" gradientUnits="userSpaceOnUse">
<stop stop-color="#F2F2F2"/>
<stop offset="0.31" stop-color="#E6E6E6"/>
<stop offset="0.77" stop-color="#CCCCCC"/>
</linearGradient>
<linearGradient id="paint8_linear" x1="26634.9" y1="58981" x2="26634.9" y2="74376.3" gradientUnits="userSpaceOnUse">
<stop stop-color="#F2F2F2"/>
<stop offset="0.31" stop-color="#E6E6E6"/>
<stop offset="0.77" stop-color="#CCCCCC"/>
</linearGradient>
<linearGradient id="paint9_linear" x1="58114" y1="58981" x2="58114" y2="74376.3" gradientUnits="userSpaceOnUse">
<stop stop-color="#F2F2F2"/>
<stop offset="0.31" stop-color="#E6E6E6"/>
<stop offset="0.77" stop-color="#CCCCCC"/>
</linearGradient>
<linearGradient id="paint10_linear" x1="52766.8" y1="55126.2" x2="52766.8" y2="67965.7" gradientUnits="userSpaceOnUse">
<stop stop-color="#F2F2F2"/>
<stop offset="0.31" stop-color="#E6E6E6"/>
<stop offset="0.77" stop-color="#CCCCCC"/>
</linearGradient>
<linearGradient id="paint11_linear" x1="51135.3" y1="56259.2" x2="51135.3" y2="66782.7" gradientUnits="userSpaceOnUse">
<stop stop-color="#F2F2F2"/>
<stop offset="0.31" stop-color="#E6E6E6"/>
<stop offset="0.77" stop-color="#CCCCCC"/>
</linearGradient>
<linearGradient id="paint12_linear" x1="59130.2" y1="36567.5" x2="59130.2" y2="40380.7" gradientUnits="userSpaceOnUse">
<stop stop-color="#F2F2F2"/>
<stop offset="0.31" stop-color="#E6E6E6"/>
<stop offset="0.77" stop-color="#CCCCCC"/>
</linearGradient>
<linearGradient id="paint13_linear" x1="71328.9" y1="42360.7" x2="71328.9" y2="47702.2" gradientUnits="userSpaceOnUse">
<stop stop-color="#F2F2F2"/>
<stop offset="0.31" stop-color="#E6E6E6"/>
<stop offset="0.77" stop-color="#CCCCCC"/>
</linearGradient>
<linearGradient id="paint14_linear" x1="31915.3" y1="42385.2" x2="31915.3" y2="47729.8" gradientUnits="userSpaceOnUse">
<stop stop-color="#F2F2F2"/>
<stop offset="0.31" stop-color="#E6E6E6"/>
<stop offset="0.77" stop-color="#CCCCCC"/>
</linearGradient>
<linearGradient id="paint15_linear" x1="40086.7" y1="53528.3" x2="40086.7" y2="60294.7" gradientUnits="userSpaceOnUse">
<stop stop-color="#F2F2F2"/>
<stop offset="0.31" stop-color="#E6E6E6"/>
<stop offset="0.77" stop-color="#CCCCCC"/>
</linearGradient>
<linearGradient id="paint16_linear" x1="9707.44" y1="8313.22" x2="9707.44" y2="7970.59" gradientUnits="userSpaceOnUse">
<stop stop-color="#808080" stop-opacity="0.25"/>
<stop offset="0.54" stop-color="#808080" stop-opacity="0.12"/>
<stop offset="1" stop-color="#808080" stop-opacity="0.1"/>
</linearGradient>
<linearGradient id="paint17_linear" x1="9094.68" y1="7418.25" x2="9094.68" y2="7712.46" gradientUnits="userSpaceOnUse">
<stop stop-color="#F2F2F2"/>
<stop offset="0.31" stop-color="#E6E6E6"/>
<stop offset="0.77" stop-color="#CCCCCC"/>
</linearGradient>
<linearGradient id="paint18_linear" x1="11441.6" y1="10837.9" x2="11441.6" y2="10430.5" gradientUnits="userSpaceOnUse">
<stop stop-color="#808080" stop-opacity="0.25"/>
<stop offset="0.54" stop-color="#808080" stop-opacity="0.12"/>
<stop offset="1" stop-color="#808080" stop-opacity="0.1"/>
</linearGradient>
<linearGradient id="paint19_linear" x1="633.301" y1="467.736" x2="633.301" y2="481.02" gradientUnits="userSpaceOnUse">
<stop stop-color="#F2F2F2"/>
<stop offset="0.31" stop-color="#E0E0E0"/>
<stop offset="0.77" stop-color="#B3B3B3"/>
</linearGradient>
<linearGradient id="paint20_linear" x1="2580.87" y1="10632.2" x2="2580.87" y2="10140.2" gradientUnits="userSpaceOnUse">
<stop stop-color="#808080" stop-opacity="0.25"/>
<stop offset="0.54" stop-color="#808080" stop-opacity="0.12"/>
<stop offset="1" stop-color="#808080" stop-opacity="0.1"/>
</linearGradient>
<linearGradient id="paint21_linear" x1="2479.48" y1="9715.25" x2="2479.48" y2="10164.2" gradientUnits="userSpaceOnUse">
<stop stop-color="#F2F2F2"/>
<stop offset="0.31" stop-color="#E6E6E6"/>
<stop offset="0.77" stop-color="#CCCCCC"/>
</linearGradient>
<linearGradient id="paint22_linear" x1="10876.6" y1="10010" x2="10876.6" y2="10377.7" gradientUnits="userSpaceOnUse">
<stop stop-color="#F2F2F2"/>
<stop offset="0.31" stop-color="#E6E6E6"/>
<stop offset="0.77" stop-color="#CCCCCC"/>
</linearGradient>
<clipPath id="clip0">
<rect width="941.404" height="435.42" fill="white" transform="translate(14 114)"/>
</clipPath>
<clipPath id="clip1">
<rect width="444" height="369.571" fill="white" transform="translate(263 123)"/>
</clipPath>
</defs>
</svg>
